# xmcd
# 
# Track frame offsets:
#	150
#	20107
#	37747
#	53665
#	65047
#	91167
#	113017
#	127675
#	144660
#	154817
#	177257
#	193585
#	205405
#	218207
#	235362
#	252482
#	272492
#	289305
#
# Disc length: 3990 seconds
#
# Revision: 1
# Processed by: cddbd v1.4PL0 Copyright (c) Steve Scherf et al.
# Submitted via: Audio-CD-Archiv 2.10.446
#
DISCID=090f9412
DTITLE=Various Artist - Feeling Taxim - CD1
DYEAR=1900
DGENRE=blues
TTITLE0=High And Lonesome - Strawberry Wine
TTITLE1=Eli and The Stranger - Dark Side of the Man
TTITLE2=Hold Outs - Moon over Bolinas
TTITLE3=Bolshoi Rodeo - Down on Me
TTITLE4=Gary Gates and Cashmere Bums - Carrot Life
TTITLE5=Mojave - Heart of Darkness
TTITLE6=Jenn Adams - Blue Island
TTITLE7=Drovers - Keep the Spark Alive
TTITLE8=Chris Darrow - Can't Outplay the Blues
TTITLE9=Kazu Matsui and David Lindley - Red Sea
TTITLE10=Plastic Theatre Art Band - New Orleans
TTITLE11=Sandoland - One Look
TTITLE12=Bumpin' Uglies - Blood on My Hands
TTITLE13=Steve Conn - River of Madness
TTITLE14=Guthrie Thomas - If You Got a Moment
TTITLE15=Cache Valley Drifters - White Room
TTITLE16=Saddletramps - Sugarcoated
TTITLE17=Peter Lewis - Right Before My Eyes
EXTD=
EXTT0=
EXTT1=
EXTT2=
EXTT3=
EXTT4=
EXTT5=
EXTT6=
EXTT7=
EXTT8=
EXTT9=
EXTT10=
EXTT11=
EXTT12=
EXTT13=
EXTT14=
EXTT15=
EXTT16=
EXTT17=
PLAYORDER=
